<?xml version="1.0" encoding="UTF-8" standalone="no"?>
<!-- Created with Inkscape (http://www.inkscape.org/) -->

<svg
   width="210mm"
   height="297mm"
   viewBox="0 0 210 297"
   version="1.1"
   id="svg5"
   xml:space="preserve"
   inkscape:version="1.2.2 (732a01da63, 2022-12-09)"
   sodipodi:docname="logo.svg"
   xmlns:inkscape="http://www.inkscape.org/namespaces/inkscape"
   xmlns:sodipodi="http://sodipodi.sourceforge.net/DTD/sodipodi-0.dtd"
   xmlns="http://www.w3.org/2000/svg"
   xmlns:svg="http://www.w3.org/2000/svg"><sodipodi:namedview
     id="namedview7"
     pagecolor="#353535"
     bordercolor="#eeeeee"
     borderopacity="1"
     inkscape:showpageshadow="0"
     inkscape:pageopacity="0"
     inkscape:pagecheckerboard="0"
     inkscape:deskcolor="#505050"
     inkscape:document-units="mm"
     showgrid="false"
     showguides="true"
     inkscape:zoom="1"
     inkscape:cx="260.5"
     inkscape:cy="413"
     inkscape:window-width="1920"
     inkscape:window-height="1009"
     inkscape:window-x="-8"
     inkscape:window-y="-8"
     inkscape:window-maximized="1"
     inkscape:current-layer="layer1"><sodipodi:guide
       position="-1.4748134,277.62269"
       orientation="1,0"
       id="guide5368"
       inkscape:locked="false" /><sodipodi:guide
       position="216.84502,279.47373"
       orientation="1,0"
       id="guide5370"
       inkscape:locked="false" /></sodipodi:namedview><defs
     id="defs2"><clipPath
       clipPathUnits="userSpaceOnUse"
       id="clipPath6761"><rect
         style="fill:none;fill-opacity:1;stroke:#000000;stroke-width:0.268512;stroke-linecap:butt;stroke-dasharray:none;paint-order:stroke markers fill"
         id="rect6763"
         width="24.419018"
         height="19.033987"
         x="102.61965"
         y="74.989906" /></clipPath><clipPath
       clipPathUnits="userSpaceOnUse"
       id="clipPath6761-6"><rect
         style="fill:none;fill-opacity:1;stroke:#000000;stroke-width:0.268512;stroke-linecap:butt;stroke-dasharray:none;paint-order:stroke markers fill"
         id="rect6763-5"
         width="24.419018"
         height="19.033987"
         x="102.61965"
         y="74.989906" /></clipPath><clipPath
       clipPathUnits="userSpaceOnUse"
       id="clipPath6761-6-3"><rect
         style="fill:none;fill-opacity:1;stroke:#000000;stroke-width:0.268512;stroke-linecap:butt;stroke-dasharray:none;paint-order:stroke markers fill"
         id="rect6763-5-6"
         width="24.419018"
         height="19.033987"
         x="102.61965"
         y="74.989906" /></clipPath><clipPath
       clipPathUnits="userSpaceOnUse"
       id="clipPath7408"><ellipse
         style="fill:none;fill-opacity:1;stroke:#1a1a1a;stroke-width:0.247513;stroke-linecap:butt;stroke-dasharray:none;paint-order:stroke markers fill"
         id="ellipse7410"
         cx="49.235729"
         cy="123.9684"
         rx="24.876242"
         ry="24.876244" /></clipPath><clipPath
       clipPathUnits="userSpaceOnUse"
       id="clipPath7412"><ellipse
         style="fill:none;fill-opacity:1;stroke:#1a1a1a;stroke-width:0.247513;stroke-linecap:butt;stroke-dasharray:none;paint-order:stroke markers fill"
         id="ellipse7414"
         cx="106.60004"
         cy="123.9684"
         rx="24.876242"
         ry="24.876244" /></clipPath><clipPath
       clipPathUnits="userSpaceOnUse"
       id="clipPath7416"><ellipse
         style="fill:none;fill-opacity:1;stroke:#1a1a1a;stroke-width:0.247513;stroke-linecap:butt;stroke-dasharray:none;paint-order:stroke markers fill"
         id="ellipse7418"
         cx="163.25"
         cy="123.9684"
         rx="24.876242"
         ry="24.876244" /></clipPath><clipPath
       clipPathUnits="userSpaceOnUse"
       id="clipPath7514"><ellipse
         style="fill:none;fill-opacity:1;stroke:#1a1a1a;stroke-width:0.247513;stroke-linecap:butt;stroke-dasharray:none;paint-order:stroke markers fill"
         id="ellipse7516"
         cx="163.25"
         cy="123.96841"
         rx="24.876242"
         ry="24.876244" /></clipPath><clipPath
       clipPathUnits="userSpaceOnUse"
       id="clipPath7609"><ellipse
         style="fill:none;fill-opacity:1;stroke:#1a1a1a;stroke-width:0.247513;stroke-linecap:butt;stroke-dasharray:none;paint-order:stroke markers fill"
         id="ellipse7611"
         cx="106.60004"
         cy="123.96841"
         rx="24.876242"
         ry="24.876244" /></clipPath></defs><g
     inkscape:label="Layer 1"
     inkscape:groupmode="layer"
     id="layer1"><rect
       style="fill:#916f8a;fill-opacity:1;stroke:none;stroke-width:0.2;stroke-linecap:round;paint-order:fill markers stroke"
       id="rect800"
       width="49.799999"
       height="49.799999"
       x="135.02031"
       y="80.810593"
       inkscape:export-filename="..\Desktop\logo.png"
       inkscape:export-xdpi="96"
       inkscape:export-ydpi="96" /><text
       xml:space="preserve"
       style="font-style:normal;font-variant:normal;font-weight:normal;font-stretch:normal;font-size:8.94864px;line-height:1.25;font-family:'Amiri Quran Colored';-inkscape-font-specification:'Amiri Quran Colored, Normal';font-variant-ligatures:normal;font-variant-caps:normal;font-variant-numeric:normal;font-variant-east-asian:normal;fill:#ffffff;fill-opacity:1;stroke:none;stroke-width:0.227625"
       x="138.44424"
       y="116.33121"
       id="text804"><tspan
         sodipodi:role="line"
         id="tspan802"
         x="138.44424"
         y="116.33121"
         style="font-style:normal;font-variant:normal;font-weight:normal;font-stretch:normal;font-size:8.94864px;font-family:'Amiri Quran Colored';-inkscape-font-specification:'Amiri Quran Colored, Normal';font-variant-ligatures:normal;font-variant-caps:normal;font-variant-numeric:normal;font-variant-east-asian:normal;fill:#ffffff;stroke-width:0.227625">co<tspan
   style="font-size:10.4878px;stroke-width:0.227625"
   id="tspan715">py</tspan></tspan><tspan
         sodipodi:role="line"
         x="138.44424"
         y="128.04051"
         style="font-style:normal;font-variant:normal;font-weight:normal;font-stretch:normal;font-size:8.94864px;font-family:'Amiri Quran Colored';-inkscape-font-specification:'Amiri Quran Colored, Normal';font-variant-ligatures:normal;font-variant-caps:normal;font-variant-numeric:normal;font-variant-east-asian:normal;fill:#ffffff;stroke-width:0.227625"
         id="tspan566">     me!</tspan></text><path
       d="m 169.14605,88.236117 v -1.38611 c 0,-1.306819 0,-1.960217 0.40598,-2.366212 0.40601,-0.405972 1.05942,-0.405972 2.36624,-0.405972 h 6.93046 c 1.30681,0 1.96022,0 2.3662,0.405972 0.406,0.405995 0.406,1.059393 0.406,2.366212 v 6.930479 c 0,1.306819 0,1.960229 -0.406,2.366224 -0.40598,0.405983 -1.05939,0.405983 -2.3662,0.405983 h -1.3861 m -12.47487,6.930487 h 6.93051 c 1.30679,0 1.96019,0 2.36617,-0.40599 0.40601,-0.406 0.40601,-1.05939 0.40601,-2.3662 v -6.930504 c 0,-1.306797 0,-1.960207 -0.40601,-2.36619 -0.40598,-0.405995 -1.05938,-0.405995 -2.36617,-0.405995 h -6.93051 c -1.30682,0 -1.96023,0 -2.36621,0.405995 -0.40597,0.405983 -0.40597,1.059393 -0.40597,2.36619 v 6.930504 c 0,1.30681 0,1.9602 0.40597,2.3662 0.40598,0.40599 1.05939,0.40599 2.36621,0.40599 z"
       stroke="#464455"
       stroke-linecap="round"
       stroke-linejoin="round"
       id="path568"
       style="fill:none;stroke:#ffffff;stroke-width:1.38609" /><rect
       style="fill:#000000;fill-opacity:1;stroke:none;stroke-width:0.2;stroke-linecap:round;paint-order:fill markers stroke"
       id="rect769"
       width="49.799999"
       height="49.799999"
       x="82.632812"
       y="80.810593"
       inkscape:export-filename="..\Desktop\logo.png"
       inkscape:export-xdpi="96"
       inkscape:export-ydpi="96" /><text
       xml:space="preserve"
       style="font-style:normal;font-variant:normal;font-weight:normal;font-stretch:normal;font-size:8.94864px;line-height:1.25;font-family:'Amiri Quran Colored';-inkscape-font-specification:'Amiri Quran Colored, Normal';font-variant-ligatures:normal;font-variant-caps:normal;font-variant-numeric:normal;font-variant-east-asian:normal;fill:#ffffff;fill-opacity:1;stroke:none;stroke-width:0.227625"
       x="86.056747"
       y="116.33121"
       id="text777"><tspan
         sodipodi:role="line"
         id="tspan773"
         x="86.056747"
         y="116.33121"
         style="font-style:normal;font-variant:normal;font-weight:normal;font-stretch:normal;font-size:8.94864px;font-family:'Amiri Quran Colored';-inkscape-font-specification:'Amiri Quran Colored, Normal';font-variant-ligatures:normal;font-variant-caps:normal;font-variant-numeric:normal;font-variant-east-asian:normal;fill:#ffffff;stroke-width:0.227625">co<tspan
   style="font-size:10.4878px;stroke-width:0.227625"
   id="tspan771">py</tspan></tspan><tspan
         sodipodi:role="line"
         x="86.056747"
         y="128.04051"
         style="font-style:normal;font-variant:normal;font-weight:normal;font-stretch:normal;font-size:8.94864px;font-family:'Amiri Quran Colored';-inkscape-font-specification:'Amiri Quran Colored, Normal';font-variant-ligatures:normal;font-variant-caps:normal;font-variant-numeric:normal;font-variant-east-asian:normal;fill:#ffffff;stroke-width:0.227625"
         id="tspan775">     me!</tspan></text><path
       d="m 116.75855,88.236117 v -1.38611 c 0,-1.306819 0,-1.960217 0.40598,-2.366212 0.40601,-0.405972 1.05942,-0.405972 2.36624,-0.405972 h 6.93046 c 1.30681,0 1.96022,0 2.3662,0.405972 0.406,0.405995 0.406,1.059393 0.406,2.366212 v 6.930479 c 0,1.306819 0,1.960229 -0.406,2.366224 -0.40598,0.405983 -1.05939,0.405983 -2.3662,0.405983 h -1.3861 m -12.47487,6.930487 h 6.93051 c 1.30679,0 1.96019,0 2.36617,-0.40599 0.40601,-0.406 0.40601,-1.05939 0.40601,-2.3662 v -6.930504 c 0,-1.306797 0,-1.960207 -0.40601,-2.36619 -0.40598,-0.405995 -1.05938,-0.405995 -2.36617,-0.405995 h -6.93051 c -1.30682,0 -1.96023,0 -2.36621,0.405995 -0.40597,0.405983 -0.40597,1.059393 -0.40597,2.36619 v 6.930504 c 0,1.30681 0,1.9602 0.40597,2.3662 0.40598,0.40599 1.05939,0.40599 2.36621,0.40599 z"
       stroke="#464455"
       stroke-linecap="round"
       stroke-linejoin="round"
       id="path779"
       style="fill:none;stroke:#ffffff;stroke-width:1.38609" /><rect
       style="fill:#ffffff;fill-opacity:1;stroke:none;stroke-width:0.2;stroke-linecap:round;paint-order:fill markers stroke"
       id="rect781"
       width="49.799999"
       height="49.799999"
       x="29.716146"
       y="80.810593"
       inkscape:export-filename="..\Desktop\logo.png"
       inkscape:export-xdpi="96"
       inkscape:export-ydpi="96" /><text
       xml:space="preserve"
       style="font-style:normal;font-variant:normal;font-weight:normal;font-stretch:normal;font-size:8.94864px;line-height:1.25;font-family:'Amiri Quran Colored';-inkscape-font-specification:'Amiri Quran Colored, Normal';font-variant-ligatures:normal;font-variant-caps:normal;font-variant-numeric:normal;font-variant-east-asian:normal;fill:#000000;fill-opacity:1;stroke:none;stroke-width:0.227625"
       x="33.140079"
       y="116.33121"
       id="text789"><tspan
         sodipodi:role="line"
         id="tspan785"
         x="33.140079"
         y="116.33121"
         style="font-style:normal;font-variant:normal;font-weight:normal;font-stretch:normal;font-size:8.94864px;font-family:'Amiri Quran Colored';-inkscape-font-specification:'Amiri Quran Colored, Normal';font-variant-ligatures:normal;font-variant-caps:normal;font-variant-numeric:normal;font-variant-east-asian:normal;fill:#000000;stroke-width:0.227625">co<tspan
   style="font-size:10.4878px;stroke-width:0.227625;fill:#000000"
   id="tspan783">py</tspan></tspan><tspan
         sodipodi:role="line"
         x="33.140079"
         y="128.04051"
         style="font-style:normal;font-variant:normal;font-weight:normal;font-stretch:normal;font-size:8.94864px;font-family:'Amiri Quran Colored';-inkscape-font-specification:'Amiri Quran Colored, Normal';font-variant-ligatures:normal;font-variant-caps:normal;font-variant-numeric:normal;font-variant-east-asian:normal;fill:#000000;stroke-width:0.227625"
         id="tspan787">     me!</tspan></text><path
       d="m 63.841883,88.236117 v -1.38611 c 0,-1.306819 0,-1.960217 0.40598,-2.366212 0.40601,-0.405972 1.05942,-0.405972 2.36624,-0.405972 h 6.93046 c 1.30681,0 1.96022,0 2.3662,0.405972 0.406,0.405995 0.406,1.059393 0.406,2.366212 v 6.930479 c 0,1.306819 0,1.960229 -0.406,2.366224 -0.40598,0.405983 -1.05939,0.405983 -2.3662,0.405983 h -1.3861 m -12.47487,6.930487 h 6.93051 c 1.30679,0 1.96019,0 2.36617,-0.40599 0.40601,-0.406 0.40601,-1.05939 0.40601,-2.3662 v -6.930504 c 0,-1.306797 0,-1.960207 -0.40601,-2.36619 -0.40598,-0.405995 -1.05938,-0.405995 -2.36617,-0.405995 h -6.93051 c -1.30682,0 -1.96023,0 -2.36621,0.405995 -0.40597,0.405983 -0.40597,1.059393 -0.40597,2.36619 v 6.930504 c 0,1.30681 0,1.9602 0.40597,2.3662 0.40598,0.40599 1.05939,0.40599 2.36621,0.40599 z"
       stroke="#464455"
       stroke-linecap="round"
       stroke-linejoin="round"
       id="path791"
       style="fill:none;stroke:#000000;stroke-width:1.38609" /></g></svg>
